<svg height="512" viewBox="0 0 60 60" width="512" xmlns="http://www.w3.org/2000/svg" xmlns:xlink="http://www.w3.org/1999/xlink"><linearGradient id="linearGradient-1" x1="7.104%" x2="92.896%" y1="-3.641%" y2="109.356%"><stop offset="0" stop-color="#d3dff2"/><stop offset=".172" stop-color="#d3dff2"/><stop offset=".2" stop-color="#d3dff2"/><stop offset=".2" stop-color="#dae2f2"/><stop offset=".201" stop-color="#ebeaf2"/><stop offset=".201" stop-color="#f6eff2"/><stop offset=".202" stop-color="#fdf2f2"/><stop offset=".205" stop-color="#fff3f2"/><stop offset=".252" stop-color="#fff3f2"/><stop offset=".26" stop-color="#fff3f2"/><stop offset=".26" stop-color="#d3dff2"/><stop offset=".397" stop-color="#d3dff2"/><stop offset=".42" stop-color="#d3dff2"/><stop offset=".42" stop-color="#dae2f2"/><stop offset=".421" stop-color="#ebeaf2"/><stop offset=".421" stop-color="#f6eff2"/><stop offset=".422" stop-color="#fdf2f2"/><stop offset=".425" stop-color="#fff3f2"/><stop offset=".489" stop-color="#fff3f2"/><stop offset=".5" stop-color="#fff3f2"/><stop offset=".5" stop-color="#f8f0f2"/><stop offset=".5" stop-color="#e7e8f2"/><stop offset=".5" stop-color="#dce3f2"/><stop offset=".5" stop-color="#d5e0f2"/><stop offset=".501" stop-color="#d3dff2"/><stop offset=".706" stop-color="#d3dff2"/><stop offset=".74" stop-color="#d3dff2"/><stop offset=".741" stop-color="#fff3f2"/><stop offset=".835" stop-color="#fff3f2"/><stop offset=".85" stop-color="#fff3f2"/><stop offset=".851" stop-color="#d3dff2"/></linearGradient><g id="Page-1" fill="none" fill-rule="evenodd"><g id="001---Laptop-Ad-Campaign" fill-rule="nonzero"><path id="Shape" d="m53 59h-46c-3.3137085 0-6-2.6862915-6-6v-3c0-.5522847.44771525-1 1-1h56c.5522847 0 1 .4477153 1 1v3c0 3.3137085-2.6862915 6-6 6z" fill="#e8edfc"/><path id="Shape" d="m58 49h-3c.5522847 0 1 .4477153 1 1v3c0 3.3137085-2.6862915 6-6 6h3c3.3137085 0 6-2.6862915 6-6v-3c0-.5522847-.4477153-1-1-1z" fill="#cad9fc"/><path id="Shape" d="m20 49h20v2c0 1.6568542-1.3431458 3-3 3h-14c-1.6568542 0-3-1.3431458-3-3z" fill="#cad9fc"/><path id="Shape" d="m57 49v-37c0-2.209139-1.790861-4-4-4h-46c-2.209139 0-4 1.790861-4 4v37z" fill="url(#linearGradient-1)"/><path id="Shape" d="m53 8h-3c2.209139 0 4 1.790861 4 4v37h3v-37c0-2.209139-1.790861-4-4-4z" fill="#cad9fc"/><rect id="Rectangle-path" fill="#e8edfc" height="4" rx="1" width="46" x="7" y="36"/><path id="Shape" d="m52 36h-3c.5522847 0 1 .4477153 1 1v2c0 .5522847-.4477153 1-1 1h3c.5522847 0 1-.4477153 1-1v-2c0-.5522847-.4477153-1-1-1z" fill="#cad9fc"/><path id="Rectangle-path" d="m26 40h8v9h-8z" fill="#a4c2f7"/><path id="Rectangle-path" d="m31 40h3v9h-3z" fill="#7facfa"/><path id="Shape" d="m21 1h18c1.1045695 0 2 .8954305 2 2v2h-22v-2c0-1.1045695.8954305-2 2-2z" fill="#e8edfc"/><path id="Shape" d="m39 1h-3c1.1045695 0 2 .8954305 2 2v2h3v-2c0-1.1045695-.8954305-2-2-2z" fill="#cad9fc"/><path id="Shape" d="m9 5h42c.5522847 0 1 .44771525 1 1v30h-44v-30c0-.55228475.44771525-1 1-1z" fill="#cad9fc"/><path id="Shape" d="m51 5h-3c.5522847 0 1 .44771525 1 1v30h3v-30c0-.55228475-.4477153-1-1-1z" fill="#a4c2f7"/><path id="Shape" d="m15 9c1.6568542 0 3 1.3431458 3 3 0 .5522847-.4477153 1-1 1h-4c-.5522847 0-1-.4477153-1-1 0-1.6568542 1.3431458-3 3-3z" fill="#e8edfc"/><path id="Shape" d="m25 9c1.6568542 0 3 1.3431458 3 3 0 .5522847-.4477153 1-1 1h-4c-.5522847 0-1-.4477153-1-1 0-1.6568542 1.3431458-3 3-3z" fill="#e8edfc"/><path id="Shape" d="m35 9c1.6568542 0 3 1.3431458 3 3 0 .5522847-.4477153 1-1 1h-4c-.5522847 0-1-.4477153-1-1 0-1.6568542 1.3431458-3 3-3z" fill="#e8edfc"/><path id="Shape" d="m45 9c1.6568542 0 3 1.3431458 3 3 0 .5522847-.4477153 1-1 1h-4c-.5522847 0-1-.4477153-1-1 0-1.6568542 1.3431458-3 3-3z" fill="#e8edfc"/><path id="Shape" d="m12 36v-18c0-.5522847.4477153-1 1-1h34c.5522847 0 1 .4477153 1 1v18" fill="#fff"/><path id="Shape" d="m47 17h-3c.5522847 0 1 .4477153 1 1v18h3v-18c0-.5522847-.4477153-1-1-1z" fill="#e8edfc"/><path id="Shape" d="m8 8h-1c-2.209139 0-4 1.790861-4 4v37h-1c-.55228475 0-1 .4477153-1 1v3c0 3.3137085 2.6862915 6 6 6h3c-3.3137085 0-6-2.6862915-6-6v-3c0-.5522847.44771525-1 1-1h1v-37c-.00053445-1.3374684.6674263-2.58670509 1.78-3.329" fill="#fff"/><path id="Rectangle-path" d="m2 41h2v8h-2z" fill="#fff"/><g fill="#428dff"><path id="Shape" d="m3.02 46c-.55228473.0027614-1.00223852-.4427153-1.00499994-.995-.00276143-.5522847.44271521-1.0022385.99499994-1.005h.01c.55228475 0 1 .4477153 1 1s-.44771525 1-1 1z"/><path id="Shape" d="m58 48v-36c-.0033061-2.76005315-2.2399468-4.99669388-5-5v-1c0-1.1045695-.8954305-2-2-2h-9v-1c0-1.65685425-1.3431458-3-3-3h-18c-1.6568542 0-3 1.34314575-3 3v1h-9c-1.1045695 0-2 .8954305-2 2v1c-2.76005315.00330612-4.99669388 2.23994685-5 5v29c.00000001.5522847.44771526 1 1 1s.99999999-.4477153 1-1v-29c0-1.6568542 1.34314575-3 3-3v26.278c-.61675126.3544126-.997855 1.0106732-1 1.722v2c0 1.1045695.8954305 2 2 2h17v7h-23c-1.1045695 0-2 .8954305-2 2v3c.00440864 3.8641657 3.13583434 6.9955914 7 7h46c3.8641657-.0044086 6.9955914-3.1358343 7-7v-3c0-1.1045695-.8954305-2-2-2zm-5-12.722v-26.278c1.6568542 0 3 1.3431458 3 3v36h-21v-7h17c1.1045695 0 2-.8954305 2-2v-2c-.002145-.7113268-.3832487-1.3675874-1-1.722zm-33-32.278c0-.55228475.4477153-1 1-1h18c.5522847 0 1 .44771525 1 1v1h-20zm-11 3h7.586l-2.047 2.047c-2.0115586.22928422-3.5327482 1.92842592-3.539 3.953 0 1.1045695.8954305 2 2 2h4c1.1045695 0 2-.8954305 2-2-.0050829-1.4598294-.8075906-2.80015543-2.092-3.494l2.506-2.506h5.968l-1.033 2.066c-1.9270624.31785736-3.3428123 1.980909-3.349 3.934 0 1.1045695.8954305 2 2 2h4c1.1045695 0 2-.8954305 2-2-.0030758-1.637417-1.0038079-3.10761366-2.526-3.711l1.144-2.289h4.764l1.144 2.289c-1.5221921.60338634-2.5229242 2.073583-2.526 3.711 0 1.1045695.8954305 2 2 2h4c1.1045695 0 2-.8954305 2-2-.0061877-1.953091-1.4219376-3.61614264-3.349-3.934l-1.033-2.066h5.968l2.506 2.506c-1.2844094.69384457-2.0869171 2.0341706-2.092 3.494 0 1.1045695.8954305 2 2 2h4c1.1045695 0 2-.8954305 2-2-.0062518-2.02457408-1.5274414-3.72371578-3.539-3.953l-2.047-2.047h7.586v29h-2v-17c0-1.1045695-.8954305-2-2-2h-34c-1.1045695 0-2 .8954305-2 2v17h-2zm8 6h-4c0-1.1045695.8954305-2 2-2s2 .8954305 2 2zm10 0h-4c0-1.1045695.8954305-2 2-2s2 .8954305 2 2zm8-2c1.1045695 0 2 .8954305 2 2h-4c0-1.1045695.8954305-2 2-2zm10 0c1.1045695 0 2 .8954305 2 2h-4c0-1.1045695.8954305-2 2-2zm2 8v17h-34v-17zm-39 21v-2h44v2zm25 2v7h-6v-7zm-12 9h18v1c0 1.1045695-.8954305 2-2 2h-14c-1.1045695 0-2-.8954305-2-2zm37 3c-.0033061 2.7600532-2.2399468 4.9966939-5 5h-46c-2.76005315-.0033061-4.99669388-2.2399468-5-5v-3h17v1c0 2.209139 1.790861 4 4 4h14c2.209139 0 4-1.790861 4-4v-1h17z"/><path id="Shape" d="m16 52h-3c-.5522847 0-1 .4477153-1 1s.4477153 1 1 1h3c.5522847 0 1-.4477153 1-1s-.4477153-1-1-1z"/><circle id="Oval" cx="5" cy="53" r="1"/><circle id="Oval" cx="9" cy="53" r="1"/><path id="Shape" d="m20.716 32.958c.5290395.1563797 1.0847846-.1452083 1.242-.674l.972-3.284h4.138l.974 3.284c.1256971.4243717.5154043.7156351.958.716.096228.0001939.1919472-.0139617.284-.042.5287917-.1572154.8303797-.7129605.674-1.242l-3.043-10.268c-.2422041-.857056-1.0243779-1.4488207-1.915-1.4488207s-1.6727959.5917647-1.915 1.4488207l-3.043 10.268c-.1563797.5290395.1452083 1.0847846.674 1.242zm4.284-10.941 1.474 4.983h-2.952z"/><path id="Shape" d="m34 33h1c2.7600532-.0033061 4.9966939-2.2399468 5-5v-3c-.0033061-2.7600532-2.2399468-4.9966939-5-5h-1c-1.1045695 0-2 .8954305-2 2v9c0 1.1045695.8954305 2 2 2zm0-11h1c1.6568542 0 3 1.3431458 3 3v3c0 1.6568542-1.3431458 3-3 3h-1z"/></g></g></g></svg>