<svg height="512" viewBox="0 0 60 60" width="512" xmlns="http://www.w3.org/2000/svg" xmlns:xlink="http://www.w3.org/1999/xlink"><linearGradient id="linearGradient-1" x1="7.427%" x2="92.573%" y1="-7.336%" y2="110.252%"><stop offset="0" stop-color="#d3dff2"/><stop offset=".172" stop-color="#d3dff2"/><stop offset=".2" stop-color="#d3dff2"/><stop offset=".2" stop-color="#dae2f2"/><stop offset=".201" stop-color="#ebeaf2"/><stop offset=".201" stop-color="#f6eff2"/><stop offset=".202" stop-color="#fdf2f2"/><stop offset=".205" stop-color="#fff3f2"/><stop offset=".252" stop-color="#fff3f2"/><stop offset=".26" stop-color="#fff3f2"/><stop offset=".26" stop-color="#d3dff2"/><stop offset=".397" stop-color="#d3dff2"/><stop offset=".42" stop-color="#d3dff2"/><stop offset=".42" stop-color="#dae2f2"/><stop offset=".421" stop-color="#ebeaf2"/><stop offset=".421" stop-color="#f6eff2"/><stop offset=".422" stop-color="#fdf2f2"/><stop offset=".425" stop-color="#fff3f2"/><stop offset=".489" stop-color="#fff3f2"/><stop offset=".5" stop-color="#fff3f2"/><stop offset=".5" stop-color="#f8f0f2"/><stop offset=".5" stop-color="#e7e8f2"/><stop offset=".5" stop-color="#dce3f2"/><stop offset=".5" stop-color="#d5e0f2"/><stop offset=".501" stop-color="#d3dff2"/><stop offset=".706" stop-color="#d3dff2"/><stop offset=".74" stop-color="#d3dff2"/><stop offset=".741" stop-color="#fff3f2"/><stop offset=".835" stop-color="#fff3f2"/><stop offset=".85" stop-color="#fff3f2"/><stop offset=".851" stop-color="#d3dff2"/></linearGradient><g id="Page-1" fill="none" fill-rule="evenodd"><g id="003---Keyword-Report" fill-rule="nonzero" transform="translate(-1)"><path id="Shape" d="m60 43v3.82c.0452102 1.152631-.8477494 2.1259569-2 2.18h-54c-1.15225064-.0540431-2.04521019-1.027369-2-2.18v-3.82z" fill="#e8edfc"/><path id="Shape" d="m57 43v3.82c.0452102 1.152631-.8477494 2.1259569-2 2.18h3c1.1522506-.0540431 2.0452102-1.027369 2-2.18v-3.82z" fill="#cad9fc"/><path id="Shape" d="m60 3.18v39.82h-58v-39.82c-.04521019-1.152631.84774936-2.12595691 2-2.18h54c1.1522506.05404309 2.0452102 1.027369 2 2.18z" fill="url(#linearGradient-1)"/><path id="Shape" d="m58 1h-3c1.1522506.05404309 2.0452102 1.027369 2 2.18v39.82h3v-39.82c.0452102-1.152631-.8477494-2.12595691-2-2.18z" fill="#cad9fc"/><path id="Shape" d="m39 49 3 6h-11-11l3-6z" fill="#a4c2f7"/><path id="Shape" d="m39 49h-3l3 6h3z" fill="#7facfa"/><rect id="Rectangle-path" fill="#e8edfc" height="4" rx="2" width="34" x="14" y="55"/><path id="Shape" d="m46 55h-3c1.1045695 0 2 .8954305 2 2s-.8954305 2-2 2h3c1.1045695 0 2-.8954305 2-2s-.8954305-2-2-2z" fill="#cad9fc"/><path id="Shape" d="m46.41 9.59c-.3704612-.3798589-.8794095-.59282307-1.41-.59h-17.68c-.3757141.00571463-.7215475-.20411687-.89-.54-1.1913329-2.54422325-3.9885229-3.92118871-6.7313727-3.31363526-2.7428497.60755345-4.6969151 3.03694318-4.7024128 5.84626976-.0054977 2.8093265 1.9390444 5.2463456 4.6794952 5.8646296 2.7404509.618284 5.5430088-.7477231 6.7442903-3.2872641.1803207-.3572365.5499345-.5790048.95-.57h2.63c.5522847 0 1 .4477153 1 1v1c0 .5522847.4477153 1 1 1h2c.5522847 0 1-.4477153 1-1v-1c0-.5522847.4477153-1 1-1h2c.5522847 0 1 .4477153 1 1v1c0 .5522847.4477153 1 1 1h2c.5522847 0 1-.4477153 1-1v-1c0-.5522847.4477153-1 1-1h1c1.1032019-.0032948 1.9967052-.8967981 2-2 .0028231-.5305905-.2101411-1.0395388-.59-1.41zm-25.41 3.41c-1.1045695 0-2-.8954305-2-2s.8954305-2 2-2 2 .8954305 2 2c-.0032948 1.1032019-.8967981 1.9967052-2 2z" fill="#e8edfc"/><path id="Shape" d="m46.41 9.59c-.3704612-.3798589-.8794095-.59282307-1.41-.59h-3c1.1011688.00816722 1.9918328.89883122 2 2-.0032948 1.1032019-.8967981 1.9967052-2 2h-1c-.5522847 0-1 .4477153-1 1v1c-.0048605.3507105-.1951096.6726121-.5.846.1493942.0962064.3223659.1494817.5.154h2c.5522847 0 1-.4477153 1-1v-1c0-.5522847.4477153-1 1-1h1c1.1032019-.0032948 1.9967052-.8967981 2-2 .0028231-.5305905-.2101411-1.0395388-.59-1.41z" fill="#cad9fc"/><path id="Shape" d="m20 30h-7l-4.95-4.95c2.0019948-2.0021991 5.0129981-2.6011882 7.6288524-1.5176335 2.6158542 1.0835547 4.3213519 3.6362409 4.3211476 6.4676335z" fill="#a4c2f7"/><path id="Shape" d="m20 30c0 3.8659932-3.1340068 7-7 7v-7z" fill="#7facfa"/><path id="Shape" d="m13 30v7c-2.8313926.0002043-5.38407882-1.7052934-6.46763352-4.3211476-1.08355469-2.6158543-.48456557-5.6268576 1.51763352-7.6288524z" fill="#e8edfc"/><path id="Shape" d="m43 23h2c.5522847 0 1 .4477153 1 1v15h-4v-15c0-.5522847.4477153-1 1-1z" fill="#cad9fc"/><path id="Shape" d="m51 26h2c.5522847 0 1 .4477153 1 1v12h-4v-12c0-.5522847.4477153-1 1-1z" fill="#7facfa"/><path id="Shape" d="m47 19h2c.5522847 0 1 .4477153 1 1v19h-4v-19c0-.5522847.4477153-1 1-1z" fill="#a4c2f7"/><path id="Shape" d="m23 55 3-6h-3l-3 6z" fill="#fff"/><path id="Shape" d="m4 49h3c-1.15225064-.0540431-2.04521019-1.027369-2-2.18v-43.64c-.04521019-1.152631.84774936-2.12595691 2-2.18h-3c-1.15225064.05404309-2.04521019 1.027369-2 2.18v43.64c-.04521019 1.152631.84774936 2.1259569 2 2.18z" fill="#fff"/><path id="Shape" d="m19 55h-3c-1.1045695 0-2 .8954305-2 2s.8954305 2 2 2h3c-1.1045695 0-2-.8954305-2-2s.8954305-2 2-2z" fill="#fff"/><path id="Rectangle-path" d="m1 3.182h2v8h-2z" fill="#fff"/><g fill="#428dff"><path id="Shape" d="m2.02 8.182c-.55228475.00276142-1.00223858-.44271525-1.005-.995s.44271525-1.00223858.995-1.005h.01c.55228475 0 1 .44771525 1 1s-.44771525 1-1 1z"/><path id="Shape" d="m58 0h-54c-1.70524172.05441563-3.04599736 1.47651044-3 3.182 0 .55228475.44771525 1 1 1s1-.44771525 1-1c-.03807599-.59858134.40338206-1.12038476 1-1.182h54c.5966179.06161524 1.038076.58341866 1 1.182v38.818h-48c-.5522847 0-1 .4477153-1 1s.4477153 1 1 1h48v2.818c.038076.5985813-.4033821 1.1203848-1 1.182h-54c-.59661794-.0616152-1.03807599-.5834187-1-1.182v-2.818h4c.55228475 0 1-.4477153 1-1s-.44771525-1-1-1h-4v-30.818c0-.5522847-.44771525-1-1-1s-1 .4477153-1 1v35.636c-.04599736 1.7054896 1.29475828 3.1275844 3 3.182h17.382l-2 4h-3.382c-1.6568542 0-3 1.3431458-3 3s1.3431458 3 3 3h30c1.6568542 0 3-1.3431458 3-3s-1.3431458-3-3-3h-3.382l-2-4h17.382c1.7052417-.0544156 3.0459974-1.4765104 3-3.182v-43.636c.0459974-1.70548956-1.2947583-3.12758437-3-3.182zm-34.382 50h14.764l2 4h-18.764zm18.382 6h4c.5522847 0 1 .4477153 1 1s-.4477153 1-1 1h-30c-.5522847 0-1-.4477153-1-1s.4477153-1 1-1z"/><path id="Shape" d="m45 8-17.661.04c-1.3833457-2.96978596-4.6414567-4.58284828-7.8418803-3.88244651-3.2004237.70040176-5.4869542 3.52688994-5.5034034 6.80301621-.0164491 3.2761263 2.2415837 6.1254323 5.4348128 6.8579361s6.4673736-.8477606 7.8804709-3.8035058c.0170615-.010613.0369245-.0158401.057-.015h2.634v1c0 .530433.2107137 1.0391408.5857864 1.4142136.3750728.3750727.8837806.5857864 1.4142136.5857864h2c1.1045695 0 2-.8954305 2-2v-1h2v1c0 1.1045695.8954305 2 2 2h2c1.1045695 0 2-.8954305 2-2v-1h1c1.6568542 0 2.9999999-1.3431458 2.9999999-3 0-1.65685422-1.3431457-2.99999997-2.9999999-3zm0 4h-1c-1.1045695 0-2 .8954305-2 2v1h-2v-1c0-1.1045695-.8954305-2-2-2h-2c-1.1045695 0-2 .8954305-2 2v1h-2v-1c0-1.1045695-.8954305-2-2-2h-2.634c-.7864094-.0082386-1.5074515.4365272-1.853 1.143-1.0070006 2.1166573-3.3492422 3.2496482-5.6338058 2.7251888s-3.8981369-2.5655731-3.8811362-4.9095013c.0170006-2.34392824 1.6600113-4.3614217 3.951942-4.8526875.3396795-.06916962.685352-.10467474 1.032-.106 1.9462512-.01042764 3.7203004 1.11368368 4.542 2.878.3300805.69048549 1.0296963 1.1277941 1.795 1.122h17.681c.5522847 0 1 .4477153 1 1s-.4477153 1-1 1z"/><path id="Shape" d="m21 8c-1.6568542 0-3 1.34314575-3 3 0 1.6568542 1.3431458 3 3 3s3-1.3431458 3-3c0-1.65685425-1.3431458-3-3-3zm0 4c-.5522847 0-1-.4477153-1-1s.4477153-1 1-1 1 .4477153 1 1-.4477153 1-1 1z"/><path id="Shape" d="m7.367 24.327c-.008.007-.017.009-.024.016s-.009.016-.016.024c-3.11431523 3.1363791-3.10090417 8.2022034.02997354 11.3220492 3.13087776 3.1198457 8.19671786 3.1153754 11.32208446-.0099912s3.1298369-8.1912067.0099912-11.3220845c-3.1198458-3.1308777-8.1856701-3.1442887-11.3220492-.0299735zm4.633 11.583c-2.03671803-.3395832-3.75446858-1.705203-4.54451812-3.6129133-.79004954-1.9077104-.54076291-4.0879491.65951812-5.7680867l3.885 3.885zm2 0v-4.91h4.91c-.4294053 2.5125124-2.3974876 4.4805947-4.91 4.91zm4.91-6.91h-5.5l-3.881-3.885c1.6801376-1.200281 3.8603763-1.4495677 5.7680867-.6595181 1.9077103.7900495 3.2733301 2.5078001 3.6129133 4.5445181z"/><path id="Shape" d="m37 23h-13c-.5522847 0-1 .4477153-1 1s.4477153 1 1 1h13c.5522847 0 1-.4477153 1-1s-.4477153-1-1-1z"/><path id="Shape" d="m37 27h-13c-.5522847 0-1 .4477153-1 1s.4477153 1 1 1h13c.5522847 0 1-.4477153 1-1s-.4477153-1-1-1z"/><path id="Shape" d="m38 32c0-.5522847-.4477153-1-1-1h-13c-.5522847 0-1 .4477153-1 1s.4477153 1 1 1h13c.5522847 0 1-.4477153 1-1z"/><path id="Shape" d="m24 35c-.5522847 0-1 .4477153-1 1s.4477153 1 1 1h6c.5522847 0 1-.4477153 1-1s-.4477153-1-1-1z"/><path id="Shape" d="m49 18h-2c-1.1045695 0-2 .8954305-2 2v2h-2c-1.1045695 0-2 .8954305-2 2v14h-1c-.5522847 0-1 .4477153-1 1s.4477153 1 1 1h16c.5522847 0 1-.4477153 1-1s-.4477153-1-1-1h-1v-11c0-1.1045695-.8954305-2-2-2h-2v-5c0-1.1045695-.8954305-2-2-2zm-4 20h-2v-14h2zm4-11v11h-2v-18h2zm4 0v11h-2v-11z"/></g></g></g></svg>