<svg height="512" viewBox="0 0 62 62" width="512" xmlns="http://www.w3.org/2000/svg"><g id="Page-1" fill="none" fill-rule="evenodd"><g id="015---User-Network" fill-rule="nonzero"><circle id="Oval" cx="31" cy="31" fill="#cad9fc" r="18"/><path id="Shape" d="m31 13c-.506 0-1 .035-1.5.076 9.3272756.7701697 16.5049834 8.5649813 16.5049834 17.924s-7.1777078 17.1538303-16.5049834 17.924c.5.041.994.076 1.5.076 9.9411255 0 18-8.0588745 18-18s-8.0588745-18-18-18z" fill="#a4c2f7"/><path id="Shape" d="m39 31c-.0032948 1.1032019-.8967981 1.9967052-2 2-.1375007 2.2657679-1.7417112 4.1745753-3.95 4.7-4.036 1.2-8.05-1.324-8.05-4.7-1.1045695 0-2-.8954305-2-2s.8954305-2 2-2c-2.56-1.38-3-4.84-3-7.05-.003218-.6519399.0368702-1.3033738.12-1.95 0 0 2.04 2 7.25 2 4.09 0 7.53-.97 8.62 3 .3030647 1.413054-.0580692 2.8870699-.98 4 1.1006623.0055034 1.9900138.899324 1.99 2z" fill="#e8edfc"/><path id="Shape" d="m37.01 29c.9219308-1.1129301 1.2830647-2.586946.98-4-.913-3.324-3.475-3.185-6.685-3.052 1.8028236-.0022513 3.3513945 1.28031 3.685 3.052.3030647 1.413054-.0580692 2.8870699-.98 4 1.1045695.0027614 1.9977614.9004305 1.995 2.005s-.9004305 1.9977614-2.005 1.995c-.1375007 2.2657679-1.7417112 4.1745753-3.95 4.7-.177.053-.366.083-.55.122.4922088.1127295.9950781.1724033 1.5.178 3.219 0 6-2.171 6-5 1.1045695.0027614 2.0022386-.8904305 2.005-1.995s-.8904305-2.0022386-1.995-2.005z" fill="#cad9fc"/><path id="Shape" d="m35 42c-.6033251 1.6908883-2.2046994 2.8197618-4 2.8197618s-3.3966749-1.1288735-4-2.8197618c1.0952577-1.1865 1.7790453-2.6943394 1.95-4.3 1.337397.4000097 2.762603.4000097 4.1 0 .1709547 1.6056606.8547423 3.1135 1.95 4.3z" fill="#e8edfc"/><circle id="Oval" cx="10" cy="10" fill="#cad9fc" r="8"/><circle id="Oval" cx="10" cy="9" fill="#e8edfc" r="3"/><circle id="Oval" cx="52" cy="10" fill="#cad9fc" r="8"/><path id="Shape" d="m52 2c-.5034323.00135829-1.005629.04990397-1.5.145 3.7641632.72658994 6.4837629 4.0213519 6.4837629 7.855s-2.7195997 7.1284101-6.4837629 7.855c2.9873733.5766142 6.0432406-.5912461 7.8846263-3.0132663s2.1495108-5.67890239.795012-8.40327682-4.1371319-4.44459996-7.1796383-4.43845688z" fill="#a4c2f7"/><circle id="Oval" cx="52" cy="9" fill="#e8edfc" r="3"/><circle id="Oval" cx="10" cy="52" fill="#cad9fc" r="8"/><circle id="Oval" cx="10" cy="51" fill="#e8edfc" r="3"/><circle id="Oval" cx="52" cy="52" fill="#cad9fc" r="8"/><path id="Shape" d="m52 44c-.5034323.0013583-1.005629.049904-1.5.145 3.7641632.7265899 6.4837629 4.0213519 6.4837629 7.855s-2.7195997 7.1284101-6.4837629 7.855c2.9873733.5766142 6.0432406-.5912461 7.8846263-3.0132663s2.1495108-5.6789024.795012-8.4032768-4.1371319-4.4446-7.1796383-4.4384569z" fill="#a4c2f7"/><circle id="Oval" cx="52" cy="51" fill="#e8edfc" r="3"/><path id="Shape" d="m14 16v.92c-2.4722436 1.4400854-5.5277564 1.4400854-8 0v-.92c0-2.209139 1.790861-4 4-4s4 1.790861 4 4z" fill="#e8edfc"/><path id="Shape" d="m56 16v.92c-2.4722436 1.4400854-5.5277564 1.4400854-8 0v-.92c0-2.209139 1.790861-4 4-4s4 1.790861 4 4z" fill="#e8edfc"/><path id="Shape" d="m54.83 13.17c-1.1364666-1.1354529-2.8431583-1.4783679-4.33-.87.4973673.2006086.950329.4972595 1.333.873.7458097.7520799 1.1651142 1.7678245 1.167 2.827v.92c-.7740514.4489412-1.6198088.7608565-2.5.922.4938838.0999485.9961306.1528519 1.5.158 1.4059855.0046637 2.7874258-.3683252 4-1.08v-.92c-.0018942-1.0606427-.4223608-2.0776689-1.17-2.83z" fill="#cad9fc"/><path id="Shape" d="m14 58v.92c-2.4722436 1.4400854-5.5277564 1.4400854-8 0v-.92c0-2.209139 1.790861-4 4-4s4 1.790861 4 4z" fill="#e8edfc"/><path id="Shape" d="m56 58v.92c-2.4722436 1.4400854-5.5277564 1.4400854-8 0v-.92c0-2.209139 1.790861-4 4-4s4 1.790861 4 4z" fill="#e8edfc"/><path id="Shape" d="m54.83 55.17c-1.1364666-1.1354529-2.8431583-1.4783679-4.33-.87.4973673.2006086.950329.4972595 1.333.873.7458097.7520799 1.1651142 1.7678245 1.167 2.827v.92c-.7740514.4489412-1.6198088.7608565-2.5.922.4938838.0999485.9961306.1528519 1.5.158 1.4059855.0046637 2.7874258-.3683252 4-1.08v-.92c-.0018942-1.0606427-.4223608-2.0776689-1.17-2.83z" fill="#cad9fc"/><path id="Shape" d="m39.98 46.6c-5.5590452 3.2000171-12.4009548 3.2000171-17.96 0 .2083821-2.5964374 2.3752148-4.5979295 4.98-4.6.6033251 1.6908883 2.2046994 2.8197618 4 2.8197618s3.3966749-1.1288735 4-2.8197618c2.6047852.0020705 4.7716179 2.0035626 4.98 4.6z" fill="#e8edfc"/><path id="Shape" d="m35 42c-.1034594.2610045-.2317133.5114846-.383.748 1.3569011.8336777 2.2347155 2.2646305 2.363 3.852-2.2915274 1.3177265-4.8455633 2.1136433-7.48 2.331.5.041.994.069 1.5.069 3.1520952.0020214 6.2491907-.8257102 8.98-2.4-.2083821-2.5964374-2.3752148-4.5979295-4.98-4.6z" fill="#cad9fc"/><path id="Shape" d="m37.35 28.52c-.27-1.23-2.94-2.11-4.87-.56-2.98 2.41-5.44 2.3-7.48 1.04-2.56-1.38-3-4.84-3-7.05-.003218-.6519399.0368702-1.3033738.12-1.95 0 0 2.04 2 7.25 2 4.09 0 7.53-.97 8.62 3 .2846406 1.2113007.0528015 2.486416-.64 3.52z" fill="#e8edfc"/><path id="Shape" d="m37.99 25c-.913-3.324-3.475-3.185-6.685-3.052 1.8028236-.0022513 3.3513945 1.28031 3.685 3.052.1854969.701823.1765091 1.4408955-.026 2.138 1.2.042 2.225.647 2.386 1.382.6928015-1.033584.9246406-2.3086993.64-3.52z" fill="#cad9fc"/><g fill="#fff"><path id="Shape" d="m11.469 17.85c-3.75669839-.7392092-6.46299176-4.0365452-6.45543426-7.86527294.00755751-3.82872771 2.72684691-7.11535422 6.48643426-7.83972706-3.15850182-.60658473-6.37290841.73900907-8.15737007 3.41478472-1.78446166 2.67577566-1.79134005 6.16045428-.01745565 8.84325378 1.77388441 2.6827994 4.98295385 4.0410725 8.14382572 3.4469615z"/><path id="Shape" d="m11.469 59.85c-3.75068259-.7443732-6.45020116-4.0389246-6.44265092-7.8627518.00755023-3.8238272 2.72005802-7.1076923 6.47365092-7.8372482-3.16065942-.6124703-6.38025167.7310856-8.1679982 3.4085565-1.78774653 2.6774708-1.794635 6.1661481-.01747582 8.8506579 1.77715918 2.6845099 4.99142058 4.0407695 8.15447402 3.4407856z"/><path id="Shape" d="m13 31c.0010701 6.4356109 3.441897 12.379828 9.022 15.586v.014c3.1756903 1.8203733 6.8306316 2.6299857 10.478 2.321-2.6338343-.2133753-5.1880172-1.0059233-7.48-2.321v-.014c-6.8104638-3.9102004-10.2948188-11.7884179-8.6057285-19.4577763s8.160708-13.3548844 15.9837285-14.0422237c-.9647843-.0814135-1.9345246-.0857606-2.9-.013-9.3240818.7769259-16.4965106 8.5706058-16.498 17.927z"/><path id="Shape" d="m5.142 2.431 1.081 1.682c-.98447694.63665174-1.79705909 1.5059017-2.366 2.531-.55243138 1.03306766-.8464776 2.18454855-.857 3.356h-2c.0101797-1.50703745.38775608-2.98885313 1.1-4.317.73046047-1.31816162 1.77545953-2.43530066 3.042-3.252z"/></g><path id="Shape" d="m2.992 7.142c-.55228474.00276141-1.00223856-.44271526-1.00499998-.995s.44271524-1.00223856.99499998-1.005h.01c.55228475 0 1 .44771525 1 1s-.44771525 1-1 1z" fill="#428dff"/><path id="Shape" d="m52 19c4.2128252.0106922 7.8723627-2.8952893 8.816427-7.000987.9440644-4.10569761-1.0786363-8.31825324-4.8730181-10.14873868-3.7943819-1.83048543-8.3504532-.79166046-10.9763244 2.50270006s-2.6225856 7.96736082.0079155 11.25802562l-1.287 1.289c-7.1981758-6.5305656-18.1778242-6.5305656-25.376 0l-1.287-1.287c2.1645784-2.6989144 2.5881276-6.40057114 1.0891412-9.51867612-1.4989863-3.11810497-4.6544425-5.09920383-8.1141412-5.09432388-1.72230947.00639472-3.40724648.50271931-4.858 1.431-.24234749.13949304-.41147331.37809743-.46283093.65296651s.02020213.55844411.19583093.77603349c.3273346.40207591.89714999.50902197 1.348.253 1.12843008-.72067891 2.43808565-1.106606 3.777-1.113 2.8473523-.00641521 5.4143579 1.71396249 6.4907508 4.35002674s.4472721 5.66152686-1.5907508 7.64997326c-.1981851-.9603505-.672214-1.8420305-1.364-2.537-.227564-.2224731-.475294-.4233353-.74-.6 1.1649235-1.1358794 1.5257483-2.86419156.9126056-4.37128304-.6131428-1.50709149-2.0780626-2.49262055-3.7051056-2.49262055-1.62704297 0-3.09196277.98552906-3.70510555 2.49262055-.61314279 1.50709148-.252318 3.23540364.91260555 4.37128304-1.08209339.7320091-1.8355993 1.8576034-2.1 3.137-1.34973649-1.3133895-2.11109851-3.1167102-2.111-5 0-.35726559-.19059892-.68739261-.5-.8660254-.30940108-.1786328-.69059892-.1786328-1 0-.30940108.17863279-.5.50875981-.5.8660254-.00426119 3.4589463 1.97654692 6.6135011 5.09389298 8.1123278 3.11734607 1.4988266 6.81816252 1.076009 9.51710702-1.0873278l1.289 1.287c-6.5305656 7.1981758-6.5305656 18.1778242 0 25.376l-1.287 1.287c-3.7405176-2.9900716-9.1653412-2.5372483-12.358371 1.0315835-3.1930298 3.5688319-3.04193348 9.0104245.34421476 12.3965727 3.38614824 3.3861483 8.82774084 3.5372446 12.39657274.3442148 3.5688318-3.1930298 4.0216551-8.6178534 1.0315835-12.358371l1.285-1.289c.9613766.8674066 2.0088084 1.6343841 3.126 2.289.059053.0468669.1235132.0864831.192.118 5.8051636 3.3213987 12.9348364 3.3213987 18.74 0 .0684868-.0315169.132947-.0711331.192-.118 1.1171916-.6546159 2.1646234-1.4215934 3.126-2.289l1.287 1.287c-2.9900716 3.7405176-2.5372483 9.1653412 1.0315835 12.358371 3.5688319 3.1930298 9.0104245 3.0419335 12.3965727-.3442148 3.3861483-3.3861482 3.5372446-8.8277408.3442148-12.3965727-3.1930298-3.5688318-8.6178534-4.0216551-12.358371-1.0315835l-1.289-1.285c6.5305656-7.1981758 6.5305656-18.1778242 0-25.376l1.287-1.287c1.5909147 1.2793701 3.571482 1.976256 5.613 1.975zm-42-12c1.1045695 0 2 .8954305 2 2s-.8954305 2-2 2-2-.8954305-2-2 .8954305-2 2-2zm3 9.315c-1.895733.9133103-4.10426697.9133103-6 0v-.315c-.00000002-1.0717968.57179675-2.0621779 1.49999999-2.5980762.92820323-.5358984 2.07179681-.5358984 3.00000001 0 .9282032.5358983 1.5 1.5262794 1.5 2.5980762zm42 0c-1.895733.9133103-4.104267.9133103-6 0v-.315c0-1.6568542 1.3431458-3 3-3s3 1.3431458 3 3zm-5-7.315c0-1.1045695.8954305-2 2-2s2 .8954305 2 2-.8954305 2-2 2-2-.8954305-2-2zm-37 49.315c-1.895733.9133103-4.10426697.9133103-6 0v-.315c-.00000002-1.0717968.57179675-2.0621779 1.49999999-2.5980762.92820323-.5358984 2.07179681-.5358984 3.00000001 0 .9282032.5358983 1.5 1.5262794 1.5 2.5980762zm-5-7.315c0-1.1045695.8954305-2 2-2s2 .8954305 2 2-.8954305 2-2 2-2-.8954305-2-2zm6.9 6c-.1981851-.9603505-.672214-1.8420305-1.364-2.537-.227564-.2224731-.475294-.4233353-.74-.6 1.1649235-1.1358794 1.5257483-2.8641916.9126056-4.371283-.6131428-1.5070915-2.0780626-2.4926206-3.7051056-2.4926206-1.62704297 0-3.09196277.9855291-3.70510555 2.4926206-.61314279 1.5070914-.252318 3.2354036.91260555 4.371283-1.08209339.7320091-1.8355993 1.8576034-2.1 3.137-2.03419938-1.9895329-2.66169901-5.0124396-1.58742469-7.6472343s3.63654099-4.3571508 6.48192469-4.3571508 5.4076504 1.7223561 6.4819247 4.3571508.4467747 5.6577014-1.5874247 7.6472343zm16.1-9c-2.7435728.0005369-5.4459183-.6677556-7.873-1.947.3866821-1.5673273 1.6775937-2.7485923 3.273-2.995.9011097 1.7026087 2.6696368 2.767556 4.596 2.767556s3.6948903-1.0649473 4.596-2.767556c1.5969406.2449254 2.8897502 1.4264831 3.277 2.995-2.4258847 1.2786134-5.1267803 1.9468868-7.869 1.947zm-5.525-19.88c-2.193-1.184-2.5-4.418-2.471-6.386 1.9994135.8965553 4.1756912 1.3293495 6.366 1.266.713 0 1.406-.029 2.072-.056 3.392-.143 4.918-.1 5.584 2.32.214844 1.0627578-.0488588 2.1662132-.721 3.017-.2930284.2832513-.3848454.7159915-.232084 1.0938286.1527613.3778372.5195341.6251673.927084.6251714.5522847 0 1 .4477153 1 1s-.4477153 1-1 1-1 .4477153-1 1c0 2.206-2.243 4-5 4s-5-1.794-5-4c0-.5522847-.4477153-1-1-1s-1-.4477153-1-1 .4477153-1 1-1c.457945.0000121.8573801-.3110456.9695591-.7550383s-.0915675-.9074499-.4945591-1.1249617zm4.264 10.78c.8354845.1320068 1.6865155.1320068 2.522 0 .2706489 1.1878934.7983633 2.3020328 1.546 3.264-.5649892 1.0211572-1.6399633 1.6549337-2.807 1.6549337s-2.2420108-.6337765-2.807-1.6549337c.7472485-.962206 1.2749203-2.0762557 1.546-3.264zm25.261 19.415c-1.895733.9133103-4.104267.9133103-6 0v-.315c0-1.6568542 1.3431458-3 3-3s3 1.3431458 3 3zm-5-7.315c0-1.1045695.8954305-2 2-2s2 .8954305 2 2-.8954305 2-2 2-2-.8954305-2-2zm2-6c2.8446685-.0039064 5.4082968 1.7155173 6.4841344 4.3489044 1.0758377 2.6333871.4495194 5.6560239-1.5841344 7.6450956-.1988619-.9598136-.6728066-1.8409894-1.364-2.536-.227564-.2224731-.475294-.4233353-.74-.6 1.1649235-1.1358794 1.5257483-2.8641916.9126056-4.371283-.6131428-1.5070915-2.0780626-2.4926206-3.7051056-2.4926206s-3.0919628.9855291-3.7051056 2.4926206c-.6131427 1.5070914-.2523179 3.2354036.9126056 4.371283-1.0855983.7292439-1.8431632 1.8539282-2.111 3.134-2.0322002-1.9892785-2.6575865-5.0109748-1.5819334-7.6434711s3.6381583-4.3516019 6.4819334-4.3485289zm-4-14c-.0031801 5.5878941-2.7539781 10.8169154-7.357 13.985-.8013447-2.2185138-2.8223215-3.7663797-5.173-3.962-.637636-.7789021-1.0802236-1.6987026-1.291-2.683 1.9268773-.7675805 3.3371521-2.4545714 3.751-4.487 1.1169456-.3643727 1.9183976-1.3472086 2.0505503-2.5146291.1321527-1.1674204-.4293191-2.3045402-1.4365503-2.9093709.5824181-1.1401539.7285666-2.4537124.411-3.694-1.115-4.059-4.409-3.92-7.6-3.79-.638.027-1.3.055-1.988.055-4.657 0-6.54-1.706-6.55-1.714-.2687502-.2631631-.6624407-.3532589-1.018897-.2331739-.3564562.120085-.6153766.4300361-.670103.8021739-.04.27-.814 5.839 1.921 8.866-.8245043.7048898-1.2042683 1.7999666-.9932067 2.8639825.2110617 1.064016.9800697 1.9312186 2.0112067 2.2680175.4138479 2.0324286 1.8241227 3.7194195 3.751 4.487-.2107764.9842974-.653364 1.9040979-1.291 2.683-2.3506785.1956203-4.3716553 1.7434862-5.173 3.962-6.6480621-4.5865388-9.1497853-13.2184382-5.9845808-20.6490875s11.1228908-11.6071952 19.0362459-9.9910643 13.5961695 8.5784529 13.5943349 16.6551518zm-3-21c-.0022688-3.17753538 2.135991-5.95799486 5.2075927-6.77162821s6.3059147.54369095 7.8769589 3.30567505c1.5710443 2.7619841 1.0846623 6.23567706-1.1845516 8.45995316-.1988619-.9598136-.6728066-1.8409894-1.364-2.536-.227564-.2224731-.475294-.4233353-.74-.6 1.1649235-1.1358794 1.5257483-2.86419156.9126056-4.37128304-.6131428-1.50709149-2.0780626-2.49262055-3.7051056-2.49262055s-3.0919628.98552906-3.7051056 2.49262055c-.6131427 1.50709148-.2523179 3.23540364.9126056 4.37128304-1.0855983.7292439-1.8431632 1.8539282-2.111 3.134-1.3437049-1.3132942-2.1008327-3.1130951-2.1-4.992z" fill="#428dff"/></g></g></svg>