<svg height="512" viewBox="0 0 60 60" width="512" xmlns="http://www.w3.org/2000/svg"><g id="Page-1" fill="none" fill-rule="evenodd"><g id="030---Website-Ranking" fill-rule="nonzero"><path id="Shape" d="m59 4v9h-58v-9c0-1.65685425 1.34314575-3 3-3h52c1.6568542 0 3 1.34314575 3 3z" fill="#e8edfc"/><path id="Shape" d="m56 1h-3c1.6568542 0 3 1.34314575 3 3v9h3v-9c0-1.65685425-1.3431458-3-3-3z" fill="#cad9fc"/><path id="Shape" d="m59 13v38c0 1.6568542-1.3431458 3-3 3h-52c-1.65685425 0-3-1.3431458-3-3v-38z" fill="#fff"/><path id="Shape" d="m56 13v38c0 1.6568542-1.3431458 3-3 3h3c1.6568542 0 3-1.3431458 3-3v-38z" fill="#e8edfc"/><circle id="Oval" cx="7" cy="7" fill="#e8edfc" r="2"/><circle id="Oval" cx="15" cy="7" fill="#e8edfc" r="2"/><circle id="Oval" cx="23" cy="7" fill="#e8edfc" r="2"/><rect id="Rectangle-path" fill="#a4c2f7" height="4" rx="2" width="14" x="41" y="5"/><circle id="Oval" cx="30" cy="47" fill="#e8edfc" r="12"/><path id="Shape" d="m28.5 35.1c6.006334.7442184 10.5165235 5.8477353 10.5165235 11.9s-4.5101895 11.1557816-10.5165235 11.9c4.610497.5853375 9.1441115-1.5457375 11.6351779-5.4692425 2.4910663-3.923505 2.4910663-8.93301 0-12.856515-2.4910664-3.923505-7.0246809-6.05458-11.6351779-5.4692425z" fill="#cad9fc"/><path id="Shape" d="m35 32v4.08c-3.1778112-1.4400097-6.8221888-1.4400097-10 0v-4.08c.0032948-1.1032019.8967981-1.9967052 2-2h6c1.1032019.0032948 1.9967052.8967981 2 2z" fill="#cad9fc"/><path id="Shape" d="m33 30h-3c1.1032019.0032948 1.9967052.8967981 2 2v3.183c1.0348449.168429 2.0433337.4709756 3 .9v-4.083c-.0032948-1.1032019-.8967981-1.9967052-2-2z" fill="#a4c2f7"/><path id="Shape" d="m30 30h-3c-1.1032019.0032948-1.9967052.8967981-2 2v1.57l-8.86-15.06c-.1832455-.3090648-.1865957-.6926808-.0087761-1.004899.1778196-.3122181.5094712-.5050383.8687761-.505101h4.44c.3482143-.0013185.671303.1811316.85.48z" fill="#e8edfc"/><path id="Shape" d="m43.86 18.51-8.86 15.06v-1.57c-.0032948-1.1032019-.8967981-1.9967052-2-2h-3l7.71-12.52c.178697-.2988684.5017857-.4813185.85-.48h4.44c.3593049.0000627.6909565.1928829.8687761.505101.1778196.3122182.1744694.6958342-.0087761 1.004899z" fill="#e8edfc"/><path id="Shape" d="m43 17h-3c.3593049.0000627.6909565.1928829.8687761.505101.1778196.3122182.1744694.6958342-.0087761 1.004899l-6.909 11.743c.6423545.3471843 1.0444538 1.0168386 1.049 1.747v1.57l8.86-15.06c.1832455-.3090648.1865957-.6926808.0087761-1.004899-.1778196-.3122181-.5094712-.5050383-.8687761-.505101z" fill="#cad9fc"/><path id="Shape" d="m30.9 40.574 1.6 3.418 3.661.561c.3716659.057016.6799329.3177023.7978889.6747356.1179561.3570333.0256605.7500567-.2388889 1.0172644l-2.683 2.755.623 3.833c.0642125.3756081-.0919557.7548663-.4020348.9763513-.310079.2214851-.7194859.2462091-1.0539652.0636487l-2.232-1.238c-.604416-.3361098-1.339584-.3361098-1.944 0l-2.228 1.239c-.3344793.1825604-.7438862.1578364-1.0539652-.0636487-.3100791-.221485-.4662473-.6007432-.4020348-.9763513l.619-3.834-2.678-2.756c-.2645494-.2672077-.356845-.6602311-.2388889-1.0172644.117956-.3570333.426223-.6177196.7978889-.6747356l3.661-.561 1.6-3.418c.1614763-.3503235.5120728-.5746319.8978203-.574417.3857474.0002149.7360939.2249138.8971797.575417z" fill="#fff"/><path id="Shape" d="m4 54h3c-1.65685425 0-3-1.3431458-3-3v-47c0-1.65685425 1.34314575-3 3-3h-3c-1.65685425 0-3 1.34314575-3 3v47c0 1.6568542 1.34314575 3 3 3z" fill="#fff"/><path id="Rectangle-path" d="m0 43h2v8h-2z" fill="#fff"/><g fill="#428dff"><path id="Shape" d="m36.308 43.565-3.133-.481-1.375-2.934c-.3259172-.7016818-1.0293209-1.1505425-1.803-1.1505425s-1.4770828.4488607-1.803 1.1505425l-1.372 2.934-3.133.481c-.7414294.1140393-1.3567012.6333831-1.5936027 1.3451416-.2369016.7117584-.0555933 1.4962358.4696027 2.0318584l2.335 2.394-.543 3.338c-.1259606.75403.1902688 1.5136981.8140727 1.9556213.6238038.4419232 1.445355.4882962 2.1149273.1193787l2.232-1.239c.302208-.1680549.669792-.1680549.972 0l2.232 1.239c.6698079.368236 1.4911295.3213992 2.1147331-.120595s.9398492-1.2014359.8142669-1.955405l-.551-3.337 2.328-2.394c.525196-.5356226.7065043-1.3201.4696027-2.0318584-.2369015-.7117585-.8521733-1.2311023-1.5936027-1.3451416zm-2.988 4.735c-.220498.2268732-.3206322.5447065-.27.857l.638 3.843-2.231-1.239c-.9056041-.5053512-2.0083959-.5053512-2.914 0l-2.216 1.239.623-3.834c.0506322-.3122935-.049502-.6301268-.27-.857l-2.68-2.767 3.661-.562c.3300298-.0501963.6132477-.2617657.755-.564l1.575-3.426v.007l1.6 3.418c.1417523.3022343.4249702.5138037.755.564l3.654.569z"/><path id="Shape" d="m1.02 48c-.55228473.0027614-1.00223852-.4427153-1.00499994-.995-.00276143-.5522847.44271521-1.0022385.99499994-1.005h.01c.55228475 0 1 .4477153 1 1s-.44771525 1-1 1z"/><path id="Shape" d="m56 0h-52c-2.209139 0-4 1.790861-4 4v39c0 .5522847.44771525 1 1 1s1-.4477153 1-1v-29h56v37c0 1.1045695-.8954305 2-2 2h-14.479c1.5994434-3.0540487 1.9161338-6.6195099.8800147-9.9076538-1.036119-3.2881439-3.3396483-6.0279541-6.4010147-7.6133462v-1.636l8.725-14.83c.3633186-.6184952.3675886-1.3841957.0111905-2.0067045-.3563982-.6225087-1.0188784-1.006482-1.7361905-1.0062955h-4.44c-.6957231-.0038801-1.3419021.3595005-1.7.956l-6.86 11.137-6.853-11.127c-.3571661-.6021999-1.006859-.9698644-1.707-.966h-4.44c-.7182055-.0003146-1.3814364.3844898-1.7376103 1.0081559s-.3505973 1.3904246.0146103 2.0088441l8.723 14.826v1.636c-3.0613664 1.5853921-5.3648957 4.3252023-6.4010147 7.6133462-1.0361191 3.2881439-.7194287 6.8536051.8800147 9.9076538h-14.479c-1.1045695 0-2-.8954305-2-2 0-.5522847-.44771525-1-1-1s-1 .4477153-1 1c0 2.209139 1.790861 4 4 4h15.774c2.4548584 3.154907 6.2285298 5.0000676 10.226 5.0000676s7.7711416-1.8451606 10.226-5.0000676h15.774c2.209139 0 4-1.790861 4-4v-47c0-2.209139-1.790861-4-4-4zm-17.44 18h4.44l-1.175 2h-4.496zm-2.46 4h4.548l-1.178 2h-4.6zm-2.462 4h4.657l-2.68 4.555c-.5234145-.9559006-1.5251849-1.5515996-2.615-1.555h-1.21zm-.638 5c.5522847 0 1 .4477153 1 1v2.636c-2.5992879-.847766-5.4007121-.847766-8 0v-2.636c0-.5522847.4477153-1 1-1zm-16-13h4.438l1.229 2h-4.49zm2.354 4h4.546l1.232 2h-4.6zm2.353 4h4.655l1.848 3h-1.21c-1.0892167.0036981-2.0902521.5994158-2.613 1.555zm8.293 32c-6.0751322 0-11-4.9248678-11-11s4.9248678-11 11-11 11 4.9248678 11 11c-.0071635 6.0721626-4.9278374 10.9928365-11 11zm28-46h-56v-8c0-1.1045695.8954305-2 2-2h52c1.1045695 0 2 .8954305 2 2z"/><path id="Shape" d="m7 4c-1.65685425 0-3 1.34314575-3 3s1.34314575 3 3 3 3-1.34314575 3-3-1.34314575-3-3-3zm0 4c-.55228475 0-1-.44771525-1-1s.44771525-1 1-1 1 .44771525 1 1-.44771525 1-1 1z"/><path id="Shape" d="m15 4c-1.6568542 0-3 1.34314575-3 3s1.3431458 3 3 3 3-1.34314575 3-3-1.3431458-3-3-3zm0 4c-.5522847 0-1-.44771525-1-1s.4477153-1 1-1 1 .44771525 1 1-.4477153 1-1 1z"/><path id="Shape" d="m23 4c-1.6568542 0-3 1.34314575-3 3s1.3431458 3 3 3 3-1.34314575 3-3-1.3431458-3-3-3zm0 4c-.5522847 0-1-.44771525-1-1s.4477153-1 1-1 1 .44771525 1 1-.4477153 1-1 1z"/><path id="Shape" d="m53 4h-10c-1.6568542.00000002-3 1.34314577-3 3s1.3431458 2.99999998 3 3h10c1.6568542-.00000002 3-1.34314577 3-3s-1.3431458-2.99999998-3-3zm0 4h-10c-.5522847 0-1-.44771525-1-1s.4477153-1 1-1h10c.5522847 0 1 .44771525 1 1s-.4477153 1-1 1z"/></g></g></g></svg>