<svg height="512" viewBox="0 0 60 60" width="512" xmlns="http://www.w3.org/2000/svg"><g id="Page-1" fill="none" fill-rule="evenodd"><g id="091---Robot-Marketer" fill-rule="nonzero"><path id="Shape" d="m59 3v19c-.0032948 1.1032019-.8967981 1.9967052-2 2h-10l-6.75 5.55c-.6071286.4864789-1.4412733.5767375-2.13841.2313867s-1.1307425-1.0636336-1.11159-1.8413867v-3.94h-3c-1.1032019-.0032948-1.9967052-.8967981-2-2v-19c.0032948-1.10320187.8967981-1.9967052 2-2h23c1.1032019.0032948 1.9967052.89679813 2 2z" fill="#e8edfc"/><path id="Shape" d="m57 1h-3c1.1032019.0032948 1.9967052.89679813 2 2v19c-.0032948 1.1032019-.8967981 1.9967052-2 2h3c1.1032019-.0032948 1.9967052-.8967981 2-2v-19c-.0032948-1.10320187-.8967981-1.9967052-2-2z" fill="#cad9fc"/><rect id="Rectangle-path" fill="#e8edfc" height="8" rx="2" width="4" x="37" y="8"/><rect id="Rectangle-path" fill="#e8edfc" height="14" rx="2" width="4" x="50" y="5"/><path id="Shape" d="m50 17-2.71-.9-6.29-2.1v-4l9-3z" fill="#e8edfc"/><path id="Shape" d="m47 8v8l3 1v-10z" fill="#cad9fc"/><path id="Shape" d="m10 38v12c-3.3137085 0-6-2.6862915-6-6s2.6862915-6 6-6z" fill="#e8edfc"/><path id="Shape" d="m44 37.99v12c-3.3137085 0-6-2.6862915-6-6s2.6862915-6 6-6z" fill="#e8edfc" transform="matrix(-1 0 0 -1 82 87.98)"/><path id="Shape" d="m38 37.995v.805c1.8562026 1.0694958 3.0000804 3.0487326 3.0000804 5.191s-1.1438778 4.1215042-3.0000804 5.191v.818c3.3137084-.0000001 5.9999998-2.6862916 5.9999998-6s-2.6862914-5.9999999-5.9999998-6z" fill="#cad9fc"/><rect id="Rectangle-path" fill="#e8edfc" height="22" rx="4" width="28" x="10" y="33"/><path id="Shape" d="m34 33h-3c2.209139 0 4 1.790861 4 4v14c0 2.209139-1.790861 4-4 4h3c2.209139 0 4-1.790861 4-4v-14c0-2.209139-1.790861-4-4-4z" fill="#cad9fc"/><path id="Shape" d="m18 55h12v3c0 .5522847-.4477153 1-1 1h-10c-.5522847 0-1-.4477153-1-1z" fill="#cad9fc"/><path id="Shape" d="m27 55v3c0 .5522847-.4477153 1-1 1h3c.5522847 0 1-.4477153 1-1v-3z" fill="#a4c2f7"/><circle id="Oval" cx="20" cy="26" fill="#e8edfc" r="2"/><rect id="Rectangle-path" fill="#e8edfc" height="6" rx="2" width="8" x="14" y="38"/><path id="Shape" d="m20 38h-3c1.1045695 0 2 .8954305 2 2v2c0 1.1045695-.8954305 2-2 2h3c1.1045695 0 2-.8954305 2-2v-2c0-1.1045695-.8954305-2-2-2z" fill="#cad9fc"/><rect id="Rectangle-path" fill="#e8edfc" height="6" rx="2" width="8" x="26" y="38"/><path id="Shape" d="m32 38h-3c1.1045695 0 2 .8954305 2 2v2c0 1.1045695-.8954305 2-2 2h3c1.1045695 0 2-.8954305 2-2v-2c0-1.1045695-.8954305-2-2-2z" fill="#cad9fc"/><path id="Shape" d="m17 55h-3c-2.209139 0-4-1.790861-4-4v-14c0-2.209139 1.790861-4 4-4h3c-2.209139 0-4 1.790861-4 4v14c0 2.209139 1.790861 4 4 4z" fill="#fff"/><path id="Shape" d="m7 44c-.00090011 2.1422262 1.14323008 4.1215715 3 5.19v.81c-3.31370843-.0000001-5.99999982-2.6862916-5.99999982-6s2.68629139-5.9999999 5.99999982-6v.81c-1.85676992 1.0684285-3.00090011 3.0477738-3 5.19z" fill="#fff"/><path id="Rectangle-path" d="m14 32h8v2h-8z" fill="#fff"/><g fill="#428dff"><path id="Shape" d="m52 4c-1.3608637.00541052-2.5476168.92616009-2.891 2.243l-7.409 2.47c-.5984261-1.26880178-1.9978145-1.95171945-3.3662112-1.64274988s-2.3385904 1.52691394-2.3337888 2.92974988v4c0 1.6568542 1.3431458 3 3 3 .3414397-.0033144.679743-.0655622 1-.184v.884c.0047639.817063.5012826 1.5507898 1.258 1.859l3.253 1.3c.5386991.2121773 1.1426923.1820054 1.657564-.0828022s.8907126-.7385815 1.031436-1.3001978l.716-2.115 1.19.4c.3723738 1.467868 1.7824654 2.4263145 3.2843626 2.232398 1.5018973-.1939165 2.6223057-1.4790868 2.6096374-2.993398v-10c0-1.65685425-1.3431458-3-3-3zm-12 10c0 .5522847-.4477153 1-1 1s-1-.4477153-1-1v-4c0-.55228475.4477153-1 1-1s1 .44771525 1 1zm5.293 4.88c-.012.036-.034.084-.042.121l-3.251-1.301v-2.313l4.022 1.341zm3.707-3.268-7-2.332v-2.56l7-2.333zm4 1.388c0 .5522847-.4477153 1-1 1s-1-.4477153-1-1v-10c0-.55228475.4477153-1 1-1s1 .44771525 1 1z"/><path id="Shape" d="m57 0h-23c-1.6568542 0-3 1.34314575-3 3v19c0 1.6568542 1.3431458 3 3 3h2v2.94c-.0112662 1.1829339.6665026 2.2643967 1.736 2.77 1.0353385.4960161 2.2645735.3449478 3.149-.387l6.473-5.323h9.642c1.6568542 0 3-1.3431458 3-3v-19c0-1.65685425-1.3431458-3-3-3zm1 22c0 .5522847-.4477153 1-1 1h-14c-.5522847 0-1 .4477153-1 1s.4477153 1 1 1h1.21l-4.592 3.776c-.2861576.2420636-.6884181.2919047-1.025.127-.3708937-.1752831-.6034275-.5529054-.593-.963v-2.94h1c.5522847 0 1-.4477153 1-1s-.4477153-1-1-1h-5c-.5522847 0-1-.4477153-1-1v-19c0-.55228475.4477153-1 1-1h23c.5522847 0 1 .44771525 1 1z"/><path id="Shape" d="m47 43h-2.079c-.4438616-3.0682529-2.8530475-5.4790664-5.921-5.925v-.075c-.0033061-2.7600532-2.2399468-4.9966939-5-5h-8.044l.825-1.655c.242683-.4733367.2844955-1.0244686.116-1.529-.1700671-.5120271-.5386529-.9342975-1.023-1.172l-2.9-1.356c.009-.1.029-.189.029-.288.0037622-1.4376441-1.0103049-2.6769829-2.4202428-2.9578917-1.4099378-.2809088-2.8215575.4751485-3.3690692 1.8044587-.5475116 1.3293102-.0778424 2.8602262 1.120945 3.6537899 1.1987874.7935638 2.7915372.6279116 3.801367-.3953569l2.864 1.338-1.279 2.557h-1.721c-.5522847 0-1 .4477153-1 1s.4477153 1 1 1h12c1.6568542 0 3 1.3431458 3 3v14c0 1.6568542-1.3431458 3-3 3h-20c-1.6568542 0-3-1.3431458-3-3v-14c0-1.6568542 1.3431458-3 3-3 .5522847 0 1-.4477153 1-1s-.4477153-1-1-1c-2.7600532.0033061-4.99669388 2.2399468-5 5v.075c-3.06795249.4459336-5.47713843 2.8567471-5.921 5.925h-2.079c-.55228475 0-1 .4477153-1 1s.44771525 1 1 1h2.081c.44768802 3.0637376 2.85496048 5.4693832 5.919 5.915v.085c.00330612 2.7600532 2.2399468 4.9966939 5 5h3v2c0 1.1045695.8954305 2 2 2h10c1.1045695 0 2-.8954305 2-2v-2h3c2.7600532-.0033061 4.9966939-2.2399468 5-5v-.085c3.0640395-.4456168 5.471312-2.8512624 5.919-5.915h2.081c.5522847 0 1-.4477153 1-1s-.4477153-1-1-1zm-27-16c-.5522847 0-1-.4477153-1-1s.4477153-1 1-1 1 .4477153 1 1-.4477153 1-1 1zm-11 21.9c-2.33032398-.4731925-4.00501256-2.5221184-4.00501256-4.9s1.67468858-4.4268075 4.00501256-4.9zm10 9.1v-2h10v2zm20-9.1v-9.8c2.330324.4731925 4.0050126 2.5221184 4.0050126 4.9s-1.6746886 4.4268075-4.0050126 4.9z"/><path id="Shape" d="m18.02 34c-.5522847.0027614-1.0022385-.4427153-1.0049999-.995-.0027615-.5522847.4427152-1.0022385.9949999-1.005h.01c.5522847 0 1 .4477153 1 1s-.4477153 1-1 1z"/><path id="Shape" d="m20 37h-4c-1.6568542 0-3 1.3431458-3 3v2c0 1.6568542 1.3431458 3 3 3h4c1.6568542 0 3-1.3431458 3-3v-2c0-1.6568542-1.3431458-3-3-3zm-3 6h-1c-.5522847 0-1-.4477153-1-1v-2c0-.5522847.4477153-1 1-1h1zm4-1c0 .5522847-.4477153 1-1 1h-1v-4h1c.5522847 0 1 .4477153 1 1z"/><path id="Shape" d="m32 45c1.6568542 0 3-1.3431458 3-3v-2c0-1.6568542-1.3431458-3-3-3h-4c-1.6568542 0-3 1.3431458-3 3v2c0 1.6568542 1.3431458 3 3 3zm-1-6h1c.5522847 0 1 .4477153 1 1v2c0 .5522847-.4477153 1-1 1h-1zm-4 3v-2c0-.5522847.4477153-1 1-1h1v4h-1c-.5522847 0-1-.4477153-1-1z"/><path id="Shape" d="m20 49v-1c0-.5522847-.4477153-1-1-1s-1 .4477153-1 1v1c0 1.6568542 1.3431458 3 3 3h6c1.6568542 0 3-1.3431458 3-3v-1c0-.5522847-.4477153-1-1-1s-1 .4477153-1 1v1c0 .5522847-.4477153 1-1 1h-6c-.5522847 0-1-.4477153-1-1z"/></g></g></g></svg>